<?xml version="1.0" encoding="UTF-8" standalone="no"?><!DOCTYPE svg PUBLIC "-//W3C//DTD SVG 1.1//EN" "http://www.w3.org/Graphics/SVG/1.1/DTD/svg11.dtd"><svg width="100%" height="100%" viewBox="0 0 1350 845" version="1.1" xmlns="http://www.w3.org/2000/svg" xmlns:xlink="http://www.w3.org/1999/xlink" xml:space="preserve" xmlns:serif="http://www.serif.com/" style="fill-rule:evenodd;clip-rule:evenodd;stroke-linecap:round;stroke-linejoin:round;stroke-miterlimit:1.5;"><g opacity="0.75"><path d="M984.698,112.429c11.019,-38.427 -11.233,-69.625 -49.661,-69.625l-649.018,-0c-38.428,-0 -78.572,31.198 -89.591,69.625l-159.719,557.007c-11.019,38.428 11.233,69.626 49.661,69.626l649.018,0c38.428,0 78.572,-31.198 89.591,-69.626l159.719,-557.007Z" style="fill:#059669;fill-opacity:0.15;stroke:#00a370;stroke-width:12.5px;"/><path d="M456.014,78.319c11.405,-39.776 -11.628,-72.069 -51.404,-72.069l-144.139,0c-39.776,0 -81.329,32.293 -92.735,72.069l-158.567,552.991c-11.406,39.776 11.628,72.069 51.404,72.069l144.138,0c39.776,0 81.329,-32.293 92.735,-72.069l158.568,-552.991Z" style="fill:none;stroke:#8c9096;stroke-width:12.5px;"/><path d="M936.912,124.06c5.697,-19.869 -5.808,-36 -25.677,-36l-377.275,0c-19.869,0 -40.626,16.131 -46.323,36l-60.212,209.985c-5.698,19.869 5.808,36 25.677,36l377.275,0c19.869,0 40.625,-16.131 46.323,-36l60.212,-209.985Z" style="fill:#00a370;fill-opacity:0.3;"/><path d="M683.096,431.518c1.435,-5.004 -1.463,-9.067 -6.468,-9.067l-263.861,0c-5.004,0 -10.232,4.063 -11.667,9.067c-1.435,5.004 1.463,9.067 6.467,9.067l263.862,0c5.004,0 10.232,-4.063 11.667,-9.067Z" style="fill:#047857;fill-opacity:0.5;"/><path d="M671.134,473.234c1.435,-5.004 -1.463,-9.067 -6.467,-9.067l-263.862,-0c-5.004,-0 -10.232,4.063 -11.667,9.067c-1.435,5.004 1.463,9.067 6.468,9.067l263.861,-0c5.004,-0 10.232,-4.063 11.667,-9.067Z" style="fill:#047857;fill-opacity:0.5;"/><path d="M659.172,514.949c1.435,-5.004 -1.463,-9.067 -6.467,-9.067l-263.861,0c-5.005,0 -10.232,4.063 -11.667,9.067c-1.435,5.005 1.462,9.068 6.467,9.068l263.861,-0c5.004,-0 10.232,-4.063 11.667,-9.068Z" style="fill:#047857;fill-opacity:0.5;"/><path d="M574.725,556.665c1.435,-5.004 -1.462,-9.067 -6.467,-9.067l-191.376,-0c-5.004,-0 -10.232,4.063 -11.667,9.067c-1.435,5.004 1.463,9.067 6.467,9.067l191.376,0c5.005,0 10.233,-4.063 11.667,-9.067Z" style="fill:#047857;fill-opacity:0.5;"/><path d="M1137.05,214.414c-10.091,-35.191 -46.854,-63.762 -82.046,-63.762l-270.99,0c-35.191,0 -55.569,28.571 -45.479,63.762l160.714,560.476c10.091,35.191 46.855,63.762 82.046,63.762l270.99,0c35.192,0 55.57,-28.571 45.479,-63.762l-160.714,-560.476Z" style="fill:none;stroke:#8c9096;stroke-width:12.5px;"/><path d="M1185.35,237.332c-7.546,-26.315 -35.037,-47.68 -61.352,-47.68l-303.155,0c-26.315,0 -41.553,21.365 -34.008,47.68l58.106,202.64c7.546,26.315 35.037,47.68 61.352,47.68l303.155,0c26.315,0 41.554,-21.365 34.008,-47.68l-58.106,-202.64Z" style="fill:#a4d3c5;fill-opacity:0.75;stroke:#19ba87;stroke-width:12.5px;"/><g><path d="M1316.91,705.816c-3.508,-12.233 -16.287,-22.164 -28.52,-22.164l-346.151,0c-12.233,0 -19.317,9.931 -15.809,22.164l19.066,66.493c3.508,12.232 16.287,22.164 28.52,22.164l346.152,-0c12.232,-0 19.316,-9.932 15.808,-22.164l-19.066,-66.493Z" style="fill:#fff;fill-opacity:0.75;"/><path d="M1328.92,702.371c-4.969,-17.328 -23.208,-31.219 -40.536,-31.219c0,0 -346.151,0 -346.151,0c-10.704,0 -18.976,4.716 -23.984,11.736c-4.828,6.769 -6.8,16.054 -3.841,26.374c0,-0 19.067,66.492 19.067,66.492c4.968,17.328 23.207,31.219 40.535,31.219l346.152,-0c10.703,-0 18.976,-4.716 23.983,-11.737c4.828,-6.768 6.8,-16.054 3.841,-26.373c0,0 -19.066,-66.492 -19.066,-66.492Zm-12.016,3.445c-3.508,-12.233 -16.287,-22.164 -28.52,-22.164l-346.151,0c-12.233,0 -19.317,9.931 -15.809,22.164l19.066,66.493c3.508,12.232 16.287,22.164 28.52,22.164l346.152,-0c12.232,-0 19.316,-9.932 15.808,-22.164l-19.066,-66.493Z" style="fill:#19ba86;fill-opacity:0.75;"/><path d="M1029.58,719.807c-2.813,-9.809 -13.061,-17.773 -22.87,-17.773l-38.258,-0c-9.81,-0 -15.491,7.964 -12.678,17.773l10.193,35.548c2.813,9.81 13.061,17.774 22.871,17.774l38.258,-0c9.809,-0 15.49,-7.964 12.677,-17.774l-10.193,-35.548Z" style="fill:#a4d3c5;fill-opacity:0.5;"/><path d="M1119.25,719.807c-2.813,-9.809 -13.061,-17.773 -22.87,-17.773l-38.258,-0c-9.81,-0 -15.49,7.964 -12.678,17.773l10.193,35.548c2.813,9.81 13.061,17.774 22.871,17.774l38.258,-0c9.81,-0 15.49,-7.964 12.677,-17.774l-10.193,-35.548Z" style="fill:#a4d3c5;fill-opacity:0.5;"/><path d="M1208.92,719.807c-2.813,-9.809 -13.061,-17.773 -22.87,-17.773l-38.258,-0c-9.81,-0 -15.49,7.964 -12.677,17.773l10.193,35.548c2.812,9.81 13.06,17.774 22.87,17.774l38.258,-0c9.81,-0 15.49,-7.964 12.677,-17.774l-10.193,-35.548Z" style="fill:#a4d3c5;fill-opacity:0.5;"/><path d="M1298.6,719.807c-2.813,-9.809 -13.06,-17.773 -22.87,-17.773l-38.258,-0c-9.81,-0 -15.49,7.964 -12.677,17.773l10.193,35.548c2.813,9.81 13.06,17.774 22.87,17.774l38.258,-0c9.81,-0 15.49,-7.964 12.677,-17.774l-10.193,-35.548Z" style="fill:#a4d3c5;fill-opacity:0.5;"/></g><g opacity="0.75"><path d="M1068.06,333.935l1.352,4.717c8.045,28.113 -8.462,51.238 -36.575,51.238c-28.124,0 -57.903,-23.143 -65.968,-51.267c-8.065,-28.125 8.442,-51.268 36.567,-51.268c7.189,0 14.732,1.513 22.138,4.439" style="fill:none;fill-rule:nonzero;stroke:#057857;stroke-width:11.82px;stroke-miterlimit:4;"/><path d="M1057.65,297.638l-36.551,51.319l-19.791,-15.38" style="fill:none;fill-rule:nonzero;stroke:#057857;stroke-width:11.82px;stroke-miterlimit:4;"/></g><path d="M201.805,568.931c8.242,-6.291 14.311,-14.831 16.862,-23.727c5.278,-18.407 -5.881,-33.553 -24.72,-33.553c-9.104,-0 -18.859,3.537 -27.1,9.827l-49.43,37.727l-13.623,47.509l48.622,-0l49.389,-37.783Z" style="fill:none;fill-rule:nonzero;stroke:#8c9096;stroke-width:9.82px;stroke-miterlimit:4;"/><path d="M184.347,545.232l-102.522,78.249" style="fill:none;fill-rule:nonzero;stroke:#8c9096;stroke-width:9.82px;stroke-miterlimit:4;"/><path d="M181.708,584.357l-48.622,-0" style="fill:none;fill-rule:nonzero;stroke:#8c9096;stroke-width:9.82px;stroke-miterlimit:4;"/></g></svg>